<svg width="305.000000" height="67.000000" viewBox="0 0 305 67" fill="none" xmlns="http://www.w3.org/2000/svg" xmlns:xlink="http://www.w3.org/1999/xlink">
	<desc>
			Created with Pixso.
	</desc>
	<defs>
		<clipPath id="clip57_2445">
			<rect id="free-icon-kitchen-utensil-4790616 1" width="66.906471" height="66.592590" transform="translate(237.410156 -0.296265)" fill="white" fill-opacity="0"/>
		</clipPath>
	</defs>
	<path id="YourMeal" d="M15.2 51.15C13.89 51.15 12.89 50.8 12.2 50.1C11.51 49.39 11.17 48.38 11.17 47.07L11.17 34.66L0.63 20.08Q0.18 19.42 0.05 18.7Q0 18.41 0 18.11Q0 17.96 0.01 17.81Q0.05 17.25 0.26 16.76Q0.52 16.15 1.04 15.64Q1.11 15.58 1.18 15.52L1.18 15.52Q2.09 14.74 3.68 14.74Q4.6 14.74 5.37 15.07L5.37 15.07Q5.64 15.18 5.9 15.34Q6.93 15.94 7.86 17.25L15.3 27.73L22.74 17.25C23.39 16.35 24.03 15.71 24.65 15.34Q24.78 15.26 24.92 15.19L24.92 15.19Q25.8 14.74 26.92 14.74C28.03 14.74 28.89 15.02 29.51 15.59C30.13 16.13 30.45 16.82 30.49 17.66C30.49 17.7 30.49 17.74 30.49 17.78C30.49 18.55 30.2 19.35 29.61 20.18L19.17 34.72L19.17 47.07C19.17 49.79 17.85 51.15 15.2 51.15ZM116.64 51.15C115.47 51.15 114.58 50.83 113.96 50.2C113.34 49.56 113.03 48.67 113.03 47.53L113.03 18.36Q113.03 16.92 113.73 16.01Q113.86 15.84 114.01 15.69C114.7 15.05 115.63 14.74 116.8 14.74C117.83 14.74 118.64 14.94 119.23 15.34C119.85 15.71 120.42 16.36 120.93 17.3L131.99 37L143.04 17.3C143.56 16.36 144.11 15.71 144.7 15.34Q145.63 14.74 147.12 14.74C148.3 14.74 149.19 15.05 149.81 15.69C150.47 16.33 150.79 17.22 150.79 18.36L150.79 47.53C150.79 48.67 150.48 49.56 149.86 50.2C149.24 50.83 148.35 51.15 147.18 51.15C146 51.15 145.09 50.83 144.44 50.2C143.82 49.56 143.51 48.67 143.51 47.53L143.51 29.11L135.04 43.9C134.62 44.54 134.17 45.03 133.69 45.36C133.25 45.66 132.64 45.81 131.88 45.81C131.13 45.81 130.51 45.65 130.02 45.31Q129.3 44.81 128.73 43.9L120.26 29.22L120.26 47.53C120.26 48.67 119.95 49.56 119.33 50.2C118.75 50.83 117.85 51.15 116.64 51.15ZM223.76 51.25C220.7 51.25 218.41 50.43 216.89 48.79C215.37 47.11 214.62 44.62 214.62 41.33L214.62 18.61C214.62 17.34 214.94 16.38 215.6 15.74Q215.66 15.68 215.73 15.63Q216.75 14.74 218.54 14.74C219.78 14.74 220.73 15.07 221.39 15.74C222.07 16.38 222.42 17.34 222.42 18.61L222.42 41.03C222.42 42.41 222.71 43.43 223.3 44.1C223.92 44.74 224.73 45.06 225.72 45.06C226 45.06 226.26 45.04 226.5 45.01C226.74 44.97 227 44.96 227.27 44.96C227.83 44.89 228.2 45.06 228.41 45.46Q228.77 46.02 228.77 47.73C228.77 48.74 228.57 49.51 228.15 50.05C227.74 50.55 227.1 50.88 226.24 51.05C225.9 51.09 225.5 51.12 225.05 51.15C224.61 51.22 224.17 51.25 223.76 51.25ZM94.99 51.15C93.68 51.15 92.68 50.82 92 50.15C91.31 49.47 90.96 48.52 90.96 47.28L90.96 29.39C90.96 28.15 91.29 27.21 91.94 26.57Q92.08 26.44 92.23 26.32Q93.22 25.57 94.79 25.57C96.03 25.57 96.97 25.9 97.63 26.57C98.28 27.21 98.61 28.15 98.61 29.39L98.61 30.3Q99.12 29.07 99.96 28.14Q100.36 27.7 100.83 27.33C102.24 26.22 104.07 25.6 106.31 25.46C107.17 25.4 107.82 25.62 108.27 26.12C108.75 26.59 109.01 27.38 109.04 28.49C109.05 28.61 109.06 28.73 109.06 28.85C109.06 29.72 108.83 30.42 108.37 30.96C107.89 31.56 107.06 31.93 105.89 32.06L104.71 32.16C102.74 32.33 101.28 32.89 100.31 33.83C99.38 34.77 98.92 36.13 98.92 37.91L98.92 47.28C98.92 48.52 98.57 49.47 97.89 50.15C97.23 50.82 96.27 51.15 94.99 51.15ZM42.26 51.25C39.54 51.25 37.16 50.73 35.13 49.69C33.13 48.65 31.58 47.16 30.48 45.21C29.38 43.26 28.83 40.96 28.83 38.31Q28.83 35.34 29.76 32.97C30.38 31.39 31.27 30.05 32.45 28.94C33.65 27.8 35.08 26.94 36.73 26.37C38.39 25.77 40.23 25.46 42.26 25.46Q46.34 25.46 49.34 27.03C51.37 28.07 52.94 29.54 54.04 31.46C55.18 33.37 55.75 35.66 55.75 38.31Q55.75 41.33 54.76 43.7C54.14 45.28 53.25 46.64 52.08 47.78C50.91 48.92 49.48 49.79 47.79 50.4C46.14 50.97 44.29 51.25 42.26 51.25ZM170.68 51.25C167.68 51.25 165.1 50.73 162.93 49.69C160.8 48.62 159.14 47.12 157.97 45.21C156.84 43.26 156.27 40.98 156.27 38.36C156.27 35.81 156.82 33.57 157.92 31.66C159.02 29.71 160.56 28.2 162.52 27.13C164.52 26.02 166.77 25.46 169.29 25.46C171.11 25.46 172.76 25.77 174.25 26.37C175.73 26.94 177 27.78 178.07 28.89C179.14 29.96 179.95 31.29 180.5 32.87C181.05 34.41 181.32 36.14 181.32 38.06C181.32 38.7 181.12 39.18 180.7 39.52C180.29 39.82 179.69 39.97 178.9 39.97L163.67 39.97C163.91 41.6 164.47 42.86 165.36 43.75C166.6 44.96 168.43 45.56 170.84 45.56C171.66 45.56 172.61 45.46 173.68 45.26C174.75 45.06 175.74 44.74 176.67 44.3C177.47 43.93 178.17 43.82 178.79 43.95C179.41 44.05 179.89 44.32 180.24 44.76C180.58 45.19 180.77 45.7 180.81 46.27C180.82 46.37 180.83 46.48 180.83 46.58C180.83 47.05 180.7 47.51 180.45 47.98C180.14 48.52 179.62 48.97 178.9 49.34C177.72 49.98 176.4 50.45 174.92 50.75C173.47 51.09 172.06 51.25 170.68 51.25ZM194.44 51.25Q191.65 51.25 189.43 50.2C187.94 49.49 186.79 48.53 185.96 47.33C185.14 46.12 184.72 44.76 184.72 43.25C184.72 41.43 185.21 40 186.17 38.96C187.14 37.89 188.7 37.13 190.87 36.7C193.04 36.23 195.92 35.99 199.5 35.99L201.36 35.99L201.36 35.14C201.36 33.66 201.01 32.62 200.33 32.01C199.64 31.37 198.47 31.06 196.81 31.06C195.88 31.06 194.87 31.17 193.77 31.41C192.7 31.61 191.51 31.96 190.2 32.47C189.44 32.8 188.77 32.89 188.19 32.72C187.6 32.52 187.15 32.18 186.84 31.71C186.53 31.21 186.38 30.67 186.38 30.1C186.38 29.49 186.55 28.92 186.89 28.39C187.24 27.82 187.81 27.4 188.6 27.13C190.22 26.49 191.73 26.05 193.14 25.82C194.59 25.58 195.92 25.46 197.12 25.46C199.77 25.46 201.94 25.85 203.63 26.62C205.35 27.36 206.65 28.52 207.51 30.1Q208.8 32.42 208.8 36.09L208.8 47.28C208.8 48.52 208.49 49.47 207.87 50.15C207.25 50.82 206.35 51.15 205.18 51.15C204.01 51.15 203.1 50.82 202.44 50.15C201.82 49.47 201.51 48.52 201.51 47.28L201.51 47.01C201.27 47.62 200.95 48.18 200.53 48.69C199.88 49.49 199.03 50.13 198 50.6C196.97 51.04 195.78 51.25 194.44 51.25ZM69.84 51.25C67.71 51.25 65.93 50.87 64.52 50.1C63.11 49.32 62.06 48.16 61.37 46.62Q60.39 44.25 60.39 40.78L60.39 29.39Q60.39 27.53 61.32 26.57Q61.34 26.55 61.37 26.52C62.06 25.88 63.02 25.57 64.26 25.57C65.5 25.57 66.47 25.88 67.16 26.52C67.84 27.16 68.19 28.12 68.19 29.39L68.19 40.98C68.19 42.46 68.5 43.56 69.12 44.3C69.74 45.01 70.72 45.36 72.06 45.36C73.54 45.36 74.75 44.86 75.68 43.85C76.64 42.81 77.13 41.45 77.13 39.77L77.13 29.39Q77.13 27.53 78.06 26.57L78.06 26.57Q78.08 26.54 78.11 26.52C78.8 25.88 79.76 25.57 81 25.57C82.27 25.57 83.24 25.88 83.89 26.52Q83.97 26.6 84.04 26.67L84.05 26.67Q84.93 27.63 84.93 29.39L84.93 47.28C84.93 49.86 83.67 51.15 81.16 51.15C79.92 51.15 78.97 50.82 78.31 50.15C77.67 49.48 77.34 48.53 77.33 47.31C76.67 48.34 75.84 49.19 74.85 49.84C73.44 50.78 71.77 51.25 69.84 51.25ZM163.66 36.04L174.85 36.04C174.79 34.98 174.59 34.07 174.25 33.32C173.83 32.38 173.23 31.68 172.44 31.21C171.68 30.74 170.73 30.5 169.6 30.5C168.32 30.5 167.24 30.79 166.34 31.36C165.45 31.93 164.76 32.75 164.28 33.83C163.98 34.48 163.78 35.22 163.66 36.04ZM42.26 45.56C43.4 45.56 44.38 45.29 45.21 44.76C46.03 44.22 46.69 43.43 47.17 42.39C47.65 41.31 47.89 39.95 47.89 38.31C47.89 35.86 47.38 34.06 46.34 32.92C45.31 31.74 43.95 31.16 42.26 31.16C41.16 31.16 40.18 31.41 39.32 31.91C38.49 32.42 37.84 33.2 37.35 34.28C36.91 35.32 36.68 36.66 36.68 38.31C36.68 40.76 37.2 42.59 38.23 43.8Q38.88 44.54 39.7 44.97Q40.82 45.56 42.26 45.56ZM201.36 39.92L199.55 39.92C197.79 39.92 196.37 40.02 195.26 40.22C194.2 40.39 193.42 40.69 192.94 41.13C192.49 41.57 192.27 42.17 192.27 42.94C192.27 43.88 192.59 44.66 193.25 45.26C193.94 45.86 194.92 46.17 196.19 46.17C197.19 46.17 198.07 45.95 198.83 45.51C199.62 45.04 200.24 44.42 200.69 43.65C201.14 42.84 201.36 41.94 201.36 40.93L201.36 39.92Z" fill="#FF7020" fill-opacity="1.000000" fill-rule="evenodd"/>
	<rect id="free-icon-kitchen-utensil-4790616 1" width="66.906471" height="66.592590" transform="translate(237.410156 -0.296265)" fill="#FFFFFF" fill-opacity="0"/>
	<g clip-path="url(#clip57_2445)">
		<path id="Rectangle 9" d="M290.12 14.32L295.69 14.14L295.69 33.88L288.97 33.88L290.12 14.32Z" fill="#FFFFFF" fill-opacity="1.000000" fill-rule="nonzero"/>
		<ellipse id="Ellipse 2" cx="272.952148" cy="48.326904" rx="6.637547" ry="8.456202" fill="#FFFFFF" fill-opacity="1.000000"/>
		<path id="Ellipse 3" d="M260.77 20.75C260.77 25.42 257.53 24.63 253.87 24.63C250.2 24.63 247.76 23.39 247.76 21.72C247.76 17.05 250.47 16.43 254.13 16.43C257.8 16.43 260.77 16.08 260.77 20.75Z" fill="#FFFFFF" fill-opacity="1.000000" fill-rule="nonzero"/>
		<path id="Vector" d="M244.46 5.58C244.14 5.76 243.7 6.15 243.48 6.45L243.09 7.01L243.09 13.98L243.09 20.96L243.43 21.84C244.66 24.97 247.3 27.05 250.47 27.38L251.32 27.47L251.39 43.21L251.45 58.94L251.74 59.41C251.91 59.67 252.29 60.05 252.59 60.26C253.07 60.59 253.24 60.63 254.13 60.63C255.01 60.63 255.19 60.59 255.65 60.28C255.92 60.09 256.3 59.71 256.48 59.44L256.81 58.96L256.88 43.22L256.94 27.47L257.79 27.38C261.04 27.05 263.89 24.72 264.89 21.61C265.17 20.72 265.17 20.57 265.17 13.86L265.17 7.02L264.82 6.51C264.25 5.71 263.65 5.37 262.64 5.32C261.57 5.27 260.8 5.62 260.21 6.45L259.82 7.01L259.75 10.27L259.69 13.55L258.31 13.55L256.94 13.55L256.88 10.29C256.81 7.07 256.81 7.02 256.48 6.55C255.94 5.73 255.27 5.37 254.28 5.32C253.2 5.27 252.43 5.62 251.85 6.45L251.45 7.01L251.39 10.27L251.32 13.55L249.95 13.55L248.58 13.55L248.51 10.29L248.45 7.02L248.1 6.51C247.52 5.71 246.92 5.37 245.91 5.32C245.19 5.28 244.95 5.33 244.46 5.58ZM259.62 19.47C259.62 20.26 258.98 21.13 258.05 21.63C257.63 21.85 257.27 21.87 254.13 21.87C250.84 21.87 250.64 21.86 250.15 21.59C249.26 21.12 248.64 20.25 248.64 19.47L248.64 19.08L254.13 19.08L259.62 19.08L259.62 19.47Z" fill="#FF7020" fill-opacity="1.000000" fill-rule="nonzero"/>
		<path id="Vector" d="M271.55 5.58C271.22 5.76 270.79 6.15 270.57 6.45L270.18 7.01L270.11 21.51L270.05 36.01L268.95 36.34C266.21 37.12 264.16 38.76 263.01 41.06C262 43.1 261.83 43.95 261.83 46.91C261.83 49.08 261.87 49.6 262.1 50.55C263.38 55.59 266.22 59.02 270.18 60.33C270.95 60.58 271.37 60.63 272.86 60.63C274.35 60.63 274.77 60.58 275.54 60.33C279.5 59.02 282.33 55.59 283.61 50.55C283.85 49.6 283.89 49.08 283.89 46.91C283.89 44.73 283.85 44.23 283.6 43.34C282.62 39.73 280.28 37.34 276.77 36.34L275.67 36.01L275.6 21.52L275.54 7.02L275.18 6.51C274.61 5.71 274.01 5.37 273 5.32C272.28 5.28 272.04 5.33 271.55 5.58ZM275.43 41.71C276.9 42.2 277.85 43.34 278.22 44.97C278.46 46.11 278.32 48.94 277.95 50.1C277.28 52.23 275.98 54.03 274.58 54.73C273.71 55.17 272.02 55.18 271.16 54.74C269.67 53.97 268.47 52.31 267.74 50.03C267.47 49.17 267.44 48.8 267.44 46.91C267.44 44.82 267.45 44.75 267.81 43.95C268.47 42.54 269.8 41.63 271.55 41.4C271.55 41.4 274.62 41.45 275.43 41.71Z" fill="#FF7020" fill-opacity="1.000000" fill-rule="nonzero"/>
		<path id="Vector" d="M296.75 5.53C295.07 6.4 292.49 8.76 290.89 10.86C286.92 16.13 284.61 23.57 284.07 32.87C283.88 36.27 283.97 36.78 284.87 37.68C285.74 38.55 285.98 38.59 290.94 38.59L295.2 38.59L295.2 48.64L295.2 58.71L295.51 59.25C295.66 59.57 296.05 60 296.37 60.23C296.88 60.59 297.01 60.63 297.94 60.63C298.82 60.63 299.01 60.59 299.47 60.28C299.74 60.09 300.12 59.71 300.3 59.44L300.63 58.96L300.63 33L300.63 7.02L300.28 6.51C299.7 5.69 299.1 5.37 298.09 5.32C297.44 5.29 297.11 5.33 296.75 5.53ZM295.2 23.76L295.2 33L292.43 33L289.68 33L289.77 31.66C290 28.08 290.88 23.76 292.02 20.57C292.77 18.47 294.81 14.53 295.14 14.53C295.18 14.53 295.2 18.68 295.2 23.76Z" fill="#FF7020" fill-opacity="1.000000" fill-rule="nonzero"/>
	</g>
</svg>
