<svg width="34.000000" height="34.000000" viewBox="0 0 34 34" fill="none" xmlns="http://www.w3.org/2000/svg" xmlns:xlink="http://www.w3.org/1999/xlink">
	<desc>
			Created with Pixso.
	</desc>
	<defs>
		<clipPath id="clip57_2247">
			<rect id="free-icon-kitchen-utensil-4790616 1" width="33.453236" height="33.296295" transform="translate(-0.294922 -0.148148)" fill="white" fill-opacity="0"/>
		</clipPath>
	</defs>
	<rect id="free-icon-kitchen-utensil-4790616 1" width="33.453236" height="33.296295" transform="translate(-0.294922 -0.148148)" fill="#FFFFFF" fill-opacity="0"/>
	<g clip-path="url(#clip57_2247)">
		<path id="Rectangle 9" d="M26.05 7.16L28.84 7.07L28.84 16.94L25.48 16.94L26.05 7.16Z" fill="#FFA132" fill-opacity="1.000000" fill-rule="nonzero"/>
		<ellipse id="Ellipse 2" cx="17.475098" cy="24.163437" rx="3.318774" ry="4.228101" fill="#FFA132" fill-opacity="1.000000"/>
		<path id="Ellipse 3" d="M11.38 10.37C11.38 12.71 9.76 12.31 7.93 12.31C6.1 12.31 4.88 11.69 4.88 10.86C4.88 8.52 6.23 8.21 8.06 8.21C9.9 8.21 11.38 8.04 11.38 10.37Z" fill="#FFA132" fill-opacity="1.000000" fill-rule="nonzero"/>
		<path id="Vector" d="M3.23 2.79C3.06 2.88 2.85 3.07 2.74 3.22L2.54 3.5L2.54 6.99L2.54 10.48L2.71 10.92C3.33 12.48 4.65 13.52 6.23 13.69L6.66 13.73L6.69 21.6L6.72 29.47L6.87 29.7C6.95 29.83 7.14 30.02 7.29 30.13C7.53 30.29 7.62 30.31 8.06 30.31C8.5 30.31 8.59 30.29 8.82 30.14C8.96 30.04 9.15 29.85 9.24 29.72L9.4 29.48L9.43 21.61L9.47 13.73L9.89 13.69C11.52 13.52 12.94 12.36 13.44 10.8C13.58 10.36 13.58 10.28 13.58 6.93L13.58 3.51L13.41 3.25C13.12 2.85 12.82 2.68 12.32 2.66C11.78 2.63 11.4 2.81 11.1 3.22L10.91 3.5L10.87 5.13L10.84 6.77L10.15 6.77L9.47 6.77L9.43 5.14C9.4 3.53 9.4 3.51 9.24 3.27C8.96 2.86 8.63 2.68 8.13 2.66C7.6 2.63 7.21 2.81 6.92 3.22L6.72 3.5L6.69 5.13L6.66 6.77L5.97 6.77L5.29 6.77L5.25 5.14L5.22 3.51L5.04 3.25C4.76 2.85 4.46 2.68 3.95 2.66C3.59 2.64 3.47 2.66 3.23 2.79ZM10.81 9.73C10.81 10.13 10.49 10.56 10.02 10.81C9.81 10.92 9.63 10.93 8.06 10.93C6.42 10.93 6.32 10.93 6.07 10.79C5.63 10.56 5.32 10.12 5.32 9.73L5.32 9.54L8.06 9.54L10.81 9.54L10.81 9.73Z" fill="#FFFFFF" fill-opacity="1.000000" fill-rule="nonzero"/>
		<path id="Vector" d="M16.77 2.79C16.61 2.88 16.39 3.07 16.28 3.22L16.09 3.5L16.05 10.75L16.02 18L15.47 18.17C14.1 18.56 13.07 19.38 12.5 20.53C12 21.55 11.91 21.97 11.91 23.45C11.91 24.54 11.93 24.8 12.05 25.27C12.69 27.79 14.11 29.51 16.09 30.16C16.47 30.29 16.68 30.31 17.43 30.31C18.17 30.31 18.38 30.29 18.77 30.16C20.75 29.51 22.16 27.79 22.8 25.27C22.92 24.8 22.94 24.54 22.94 23.45C22.94 22.36 22.92 22.11 22.8 21.67C22.31 19.86 21.14 18.67 19.38 18.17L18.83 18L18.8 10.76L18.77 3.51L18.59 3.25C18.3 2.85 18 2.68 17.5 2.66C17.14 2.64 17.01 2.66 16.77 2.79ZM18.71 20.85C19.44 21.1 19.92 21.67 20.1 22.48C20.23 23.05 20.16 24.47 19.97 25.05C19.63 26.11 18.99 27.01 18.29 27.36C17.85 27.58 17.01 27.59 16.58 27.37C15.83 26.98 15.23 26.15 14.86 25.01C14.73 24.59 14.71 24.4 14.71 23.45C14.71 22.41 14.72 22.37 14.9 21.97C15.23 21.27 15.9 20.81 16.77 20.7C16.77 20.7 18.31 20.72 18.71 20.85Z" fill="#FFFFFF" fill-opacity="1.000000" fill-rule="nonzero"/>
		<path id="Vector" d="M29.37 2.76C28.53 3.2 27.24 4.38 26.44 5.43C24.46 8.06 23.3 11.78 23.03 16.43C22.93 18.13 22.98 18.39 23.43 18.84C23.87 19.27 23.99 19.29 26.47 19.29L28.6 19.29L28.6 24.32L28.6 29.35L28.75 29.62C28.83 29.78 29.02 30 29.18 30.11C29.43 30.29 29.5 30.31 29.96 30.31C30.41 30.31 30.5 30.29 30.73 30.14C30.87 30.04 31.06 29.85 31.15 29.72L31.31 29.48L31.31 16.5L31.31 3.51L31.13 3.25C30.85 2.84 30.55 2.68 30.04 2.66C29.72 2.64 29.55 2.66 29.37 2.76ZM28.6 11.88L28.6 16.5L27.21 16.5L25.83 16.5L25.88 15.83C26 14.04 26.44 11.88 27 10.28C27.38 9.23 28.4 7.26 28.57 7.26C28.59 7.26 28.6 9.34 28.6 11.88Z" fill="#FFFFFF" fill-opacity="1.000000" fill-rule="nonzero"/>
	</g>
</svg>
