<svg width="18.000000" height="18.000000" viewBox="0 0 18 18" fill="none" xmlns="http://www.w3.org/2000/svg" xmlns:xlink="http://www.w3.org/1999/xlink">
	<desc>
			Created with Pixso.
	</desc>
	<defs/>
	<path id="Vector" d="M17 12.38C15.77 12.38 14.58 12.18 13.48 11.81C13.12 11.7 12.74 11.79 12.47 12.06L10.89 14.03C8.06 12.68 5.41 10.13 4 7.19L5.95 5.54C6.22 5.26 6.31 4.87 6.2 4.52C5.83 3.41 5.64 2.21 5.64 0.98C5.64 0.44 5.18 0 4.64 0L1.18 0C0.64 0 0 0.23 0 0.98C0 10.28 7.72 18 17 18C17.72 18 18 17.37 18 16.81L18 13.37C18 12.83 17.54 12.38 17 12.38Z" fill="#000000" fill-opacity="1.000000" fill-rule="nonzero"/>
</svg>
