<svg width="115.000000" height="18.000000" viewBox="0 0 115 18" fill="none" xmlns="http://www.w3.org/2000/svg" xmlns:xlink="http://www.w3.org/1999/xlink">
	<desc>
			Created with Pixso.
	</desc>
	<defs/>
	<path id="YourMeal" d="M7.6 17.57C6.94 17.57 6.44 17.4 6.1 17.05C5.75 16.69 5.58 16.19 5.58 15.53L5.58 9.33L0.31 2.04Q0.09 1.71 0.02 1.35Q0 1.2 0 1.05Q0 0.98 0 0.9Q0.02 0.62 0.13 0.38Q0.26 0.07 0.52 -0.18Q0.55 -0.21 0.59 -0.24L0.59 -0.24Q1.04 -0.63 1.84 -0.63Q2.29 -0.63 2.68 -0.47L2.68 -0.47Q2.82 -0.41 2.95 -0.33Q3.46 -0.03 3.93 0.62L7.65 5.86L11.37 0.62C11.69 0.17 12.01 -0.15 12.32 -0.33Q12.39 -0.37 12.46 -0.41L12.46 -0.41Q12.9 -0.63 13.46 -0.63C14.01 -0.63 14.44 -0.49 14.75 -0.21C15.06 0.06 15.22 0.41 15.24 0.83C15.24 0.85 15.24 0.87 15.24 0.89C15.24 1.27 15.1 1.67 14.8 2.09L9.58 9.36L9.58 15.53Q9.58 16.58 9.06 17.09Q8.56 17.57 7.6 17.57ZM58.32 17.57C57.73 17.57 57.29 17.41 56.98 17.1C56.67 16.78 56.51 16.33 56.51 15.76L56.51 1.18Q56.51 0.46 56.86 0Q56.93 -0.08 57 -0.16C57.35 -0.48 57.81 -0.63 58.4 -0.63C58.91 -0.63 59.32 -0.53 59.61 -0.33C59.92 -0.15 60.21 0.18 60.46 0.65L65.99 10.5L71.52 0.65C71.78 0.18 72.05 -0.15 72.35 -0.33Q72.81 -0.63 73.56 -0.63C74.15 -0.63 74.59 -0.48 74.9 -0.16C75.23 0.16 75.39 0.61 75.39 1.18L75.39 15.76C75.39 16.33 75.24 16.78 74.93 17.1C74.62 17.41 74.17 17.57 73.59 17.57C73 17.57 72.54 17.41 72.22 17.1C71.91 16.78 71.75 16.33 71.75 15.76L71.75 6.55L67.52 13.95C67.31 14.27 67.08 14.51 66.84 14.68C66.62 14.83 66.32 14.9 65.94 14.9C65.56 14.9 65.25 14.82 65.01 14.65Q64.65 14.4 64.36 13.95L60.13 6.61L60.13 15.76C60.13 16.33 59.97 16.78 59.66 17.1C59.37 17.41 58.92 17.57 58.32 17.57ZM111.88 17.62C110.35 17.62 109.2 17.21 108.44 16.39C107.69 15.55 107.31 14.31 107.31 12.66L107.31 1.3C107.31 0.67 107.47 0.19 107.8 -0.13Q107.83 -0.16 107.86 -0.19Q108.37 -0.63 109.27 -0.63C109.89 -0.63 110.36 -0.47 110.69 -0.13C111.03 0.19 111.21 0.67 111.21 1.3L111.21 12.51C111.21 13.2 111.35 13.71 111.65 14.05C111.96 14.37 112.36 14.53 112.86 14.53C113 14.53 113.13 14.52 113.25 14.5C113.37 14.48 113.5 14.48 113.64 14.48C113.91 14.44 114.1 14.53 114.2 14.73Q114.38 15.01 114.38 15.86C114.38 16.37 114.28 16.75 114.07 17.02C113.87 17.27 113.55 17.44 113.12 17.52C112.95 17.54 112.75 17.56 112.52 17.57C112.3 17.61 112.08 17.62 111.88 17.62ZM47.49 17.57C46.84 17.57 46.34 17.41 46 17.07C45.65 16.73 45.48 16.26 45.48 15.64L45.48 6.69C45.48 6.07 45.64 5.6 45.97 5.28Q46.04 5.22 46.11 5.16Q46.61 4.78 47.39 4.78C48.01 4.78 48.48 4.95 48.81 5.28C49.14 5.6 49.3 6.07 49.3 6.69L49.3 7.15Q49.56 6.53 49.98 6.07Q50.18 5.85 50.41 5.66C51.12 5.11 52.03 4.8 53.15 4.73C53.58 4.7 53.91 4.81 54.13 5.06C54.37 5.29 54.5 5.69 54.52 6.24C54.52 6.3 54.53 6.36 54.53 6.42C54.53 6.86 54.41 7.21 54.18 7.48C53.94 7.78 53.53 7.96 52.94 8.03L52.35 8.08C51.37 8.16 50.64 8.44 50.15 8.91C49.69 9.38 49.46 10.06 49.46 10.95L49.46 15.64C49.46 16.26 49.28 16.73 48.94 17.07C48.61 17.41 48.13 17.57 47.49 17.57ZM21.13 17.62C19.77 17.62 18.58 17.36 17.56 16.84C16.56 16.32 15.79 15.58 15.24 14.6C14.69 13.63 14.41 12.48 14.41 11.15Q14.41 9.67 14.88 8.48C15.19 7.69 15.64 7.02 16.22 6.47C16.82 5.9 17.54 5.47 18.36 5.18C19.19 4.88 20.11 4.73 21.13 4.73Q23.17 4.73 24.67 5.51C25.68 6.03 26.47 6.77 27.02 7.73C27.59 8.68 27.87 9.83 27.87 11.15Q27.87 12.66 27.38 13.85C27.07 14.64 26.62 15.32 26.04 15.89C25.45 16.46 24.74 16.89 23.89 17.2C23.07 17.48 22.14 17.62 21.13 17.62ZM85.34 17.62C83.84 17.62 82.55 17.36 81.46 16.84C80.4 16.31 79.57 15.56 78.98 14.6C78.42 13.63 78.13 12.49 78.13 11.18C78.13 9.9 78.41 8.78 78.96 7.83C79.51 6.85 80.27 6.1 81.26 5.56C82.26 5.01 83.38 4.73 84.64 4.73C85.55 4.73 86.38 4.88 87.12 5.18C87.86 5.47 88.5 5.89 89.03 6.44C89.57 6.98 89.97 7.64 90.25 8.43C90.52 9.2 90.66 10.07 90.66 11.03C90.66 11.35 90.56 11.59 90.35 11.76C90.14 11.91 89.84 11.98 89.44 11.98L81.83 11.98C81.95 12.8 82.23 13.43 82.68 13.87C83.3 14.48 84.21 14.78 85.42 14.78C85.83 14.78 86.3 14.73 86.84 14.63C87.37 14.53 87.87 14.37 88.33 14.15C88.73 13.96 89.08 13.91 89.39 13.97C89.7 14.02 89.94 14.16 90.12 14.38C90.29 14.59 90.38 14.85 90.4 15.13C90.41 15.18 90.41 15.24 90.41 15.29C90.41 15.52 90.35 15.75 90.22 15.99C90.06 16.26 89.81 16.48 89.44 16.67C88.86 16.99 88.2 17.22 87.46 17.37C86.73 17.54 86.03 17.62 85.34 17.62ZM97.22 17.62Q95.82 17.62 94.71 17.1C93.97 16.74 93.39 16.26 92.98 15.66C92.57 15.06 92.36 14.38 92.36 13.62C92.36 12.71 92.6 12 93.08 11.48C93.56 10.94 94.35 10.56 95.43 10.35C96.52 10.11 97.96 9.99 99.75 9.99L100.68 9.99L100.68 9.57C100.68 8.83 100.51 8.31 100.16 8C99.82 7.68 99.23 7.53 98.4 7.53C97.94 7.53 97.43 7.58 96.88 7.7C96.35 7.8 95.75 7.98 95.1 8.23C94.72 8.4 94.38 8.44 94.09 8.36C93.8 8.26 93.57 8.09 93.42 7.85C93.26 7.6 93.19 7.33 93.19 7.05C93.19 6.74 93.27 6.46 93.44 6.19C93.62 5.91 93.9 5.7 94.3 5.56C95.11 5.24 95.86 5.02 96.57 4.91C97.29 4.79 97.96 4.73 98.56 4.73C99.88 4.73 100.97 4.92 101.81 5.31C102.67 5.68 103.32 6.26 103.75 7.05Q104.4 8.21 104.4 10.04L104.4 15.64C104.4 16.26 104.24 16.73 103.93 17.07C103.62 17.41 103.17 17.57 102.59 17.57C102 17.57 101.55 17.41 101.22 17.07C100.91 16.73 100.75 16.26 100.75 15.64L100.75 15.5C100.63 15.81 100.47 16.09 100.26 16.34C99.94 16.74 99.51 17.06 99 17.3C98.48 17.52 97.89 17.62 97.22 17.62ZM34.92 17.62C33.85 17.62 32.96 17.43 32.26 17.05C31.55 16.66 31.03 16.08 30.68 15.31Q30.19 14.12 30.19 12.39L30.19 6.69Q30.19 5.76 30.66 5.28Q30.67 5.27 30.68 5.26Q30.7 5.24 30.72 5.22L30.72 5.22Q31.23 4.78 32.13 4.78C32.75 4.78 33.23 4.94 33.58 5.26C33.92 5.58 34.09 6.06 34.09 6.69L34.09 12.49C34.09 13.23 34.25 13.78 34.56 14.15C34.87 14.5 35.36 14.68 36.03 14.68C36.77 14.68 37.37 14.43 37.84 13.92C38.32 13.4 38.56 12.72 38.56 11.88L38.56 6.69Q38.56 5.76 39.03 5.28L39.03 5.28Q39.04 5.27 39.05 5.26C39.4 4.94 39.88 4.78 40.5 4.78C41.14 4.78 41.62 4.94 41.94 5.26Q41.98 5.3 42.02 5.33L42.02 5.33Q42.46 5.81 42.46 6.69L42.46 15.64C42.46 16.93 41.83 17.57 40.58 17.57C39.96 17.57 39.48 17.41 39.15 17.07C38.83 16.74 38.67 16.26 38.66 15.65C38.33 16.17 37.92 16.59 37.42 16.92C36.72 17.39 35.88 17.62 34.92 17.62ZM81.83 10.02L87.42 10.02C87.39 9.49 87.29 9.03 87.12 8.66C86.91 8.19 86.61 7.84 86.22 7.6C85.84 7.37 85.36 7.25 84.8 7.25C84.16 7.25 83.62 7.39 83.17 7.68C82.72 7.96 82.38 8.37 82.13 8.91C81.99 9.24 81.89 9.61 81.83 10.02ZM21.13 14.78C21.7 14.78 22.19 14.64 22.6 14.38C23.01 14.11 23.34 13.71 23.58 13.19C23.82 12.65 23.94 11.97 23.94 11.15C23.94 9.93 23.69 9.03 23.17 8.46Q22.87 8.11 22.49 7.9Q21.9 7.58 21.13 7.58C20.58 7.58 20.09 7.7 19.66 7.95C19.24 8.21 18.92 8.6 18.67 9.14Q18.34 9.92 18.34 11.15C18.34 12.38 18.6 13.29 19.11 13.9Q19.44 14.27 19.85 14.48Q20.41 14.78 21.13 14.78ZM100.68 11.96L99.77 11.96C98.89 11.96 98.18 12.01 97.63 12.11C97.1 12.19 96.71 12.34 96.47 12.56C96.24 12.78 96.13 13.08 96.13 13.47C96.13 13.94 96.29 14.33 96.62 14.63C96.97 14.93 97.46 15.08 98.09 15.08C98.59 15.08 99.03 14.97 99.41 14.75C99.81 14.52 100.12 14.21 100.34 13.82C100.57 13.42 100.68 12.97 100.68 12.46L100.68 11.96Z" fill="#FFFFFF" fill-opacity="1.000000" fill-rule="evenodd"/>
</svg>
